<svg width="1080" height="1080" viewBox="0 0 1080 1080" fill="none" xmlns="http://www.w3.org/2000/svg">
<path d="M269.567 324.729C274.716 287.984 327.799 287.983 332.948 324.729L399.296 798.204C401.994 817.455 387.045 834.645 367.606 834.645H234.909C215.47 834.645 200.521 817.455 203.219 798.204L269.567 324.729Z" fill="#004444"/>
<path d="M271.096 85.0941C281.167 56.6817 321.348 56.6816 331.419 85.094L547.022 693.374C554.405 714.201 538.958 736.065 516.861 736.065H85.6539C63.5572 736.065 48.1103 714.201 55.4924 693.374L271.096 85.0941Z" fill="#017777"/>
<path d="M810.433 755.271C805.284 792.016 752.201 792.017 747.052 755.271L680.704 281.796C678.006 262.545 692.955 245.355 712.394 245.355L845.091 245.355C864.53 245.355 879.479 262.545 876.781 281.796L810.433 755.271Z" fill="#017777"/>
<path d="M808.904 994.906C798.833 1023.32 758.652 1023.32 748.581 994.906L532.978 386.626C525.595 365.799 541.042 343.935 563.139 343.935L994.346 343.935C1016.44 343.935 1031.89 365.799 1024.51 386.626L808.904 994.906Z" fill="#004444"/>
</svg>
